<svg width="24" height="24" viewBox="0 0 24 24" fill="none" xmlns="http://www.w3.org/2000/svg">
<path d="M7.90078 14.1001L7.99078 14.0101C8.26078 13.7401 8.31078 13.3001 8.07078 13.0001C7.36078 12.0901 7.00078 11.0101 7.00078 10.0001C7.00078 8.92005 7.35078 7.84005 8.04078 6.99005C8.29078 6.69005 8.25078 6.24005 7.97078 5.97005L7.90078 5.90005C7.56078 5.56005 7.00078 5.60005 6.70078 5.98005C5.79078 7.16005 5.30078 8.58005 5.30078 10.0001C5.30078 11.4201 5.79078 12.8401 6.70078 14.0201C7.00078 14.4001 7.56078 14.4401 7.90078 14.1001ZM18.5108 3.49005L18.4308 3.57005C18.1308 3.87005 18.1408 4.33005 18.4008 4.65005C19.6608 6.18005 20.3008 8.13005 20.3008 10.0001C20.3008 11.8701 19.6708 13.8101 18.4008 15.3501C18.1208 15.6801 18.1708 16.1801 18.4808 16.4901C18.8308 16.8401 19.4108 16.8001 19.7208 16.4201C21.2908 14.5401 22.0008 12.3101 22.0008 10.0001C22.0008 7.68005 21.2108 5.45005 19.6908 3.57005C19.3908 3.20005 18.8408 3.16005 18.5108 3.49005Z" fill="#F59E0B"/>
<path d="M5.57 3.57005L5.49 3.49005C5.16 3.16005 4.61 3.20005 4.31 3.57005C2.79 5.45005 2 7.68005 2 10.0001C2 12.3201 2.79 14.5501 4.31 16.4301C4.61 16.8001 5.16 16.8501 5.49 16.5101L5.57 16.4301C5.87 16.1301 5.86 15.6701 5.6 15.3501C4.33 13.8101 3.7 11.8701 3.7 10.0001C3.7 8.13005 4.33 6.19005 5.6 4.65005C5.86 4.33005 5.87 3.87005 5.57 3.57005ZM16.07 14.0701C16.43 14.4301 17.02 14.3901 17.33 13.9801C18.23 12.8001 18.7 11.4001 18.7 10.0001C18.62 8.59005 18.19 7.17005 17.3 5.99005C17.2318 5.89857 17.1448 5.82279 17.0449 5.76783C16.9449 5.71288 16.8343 5.68002 16.7205 5.67149C16.6068 5.66296 16.4925 5.67895 16.3854 5.71838C16.2784 5.75781 16.181 5.81976 16.1 5.90005L16.02 5.98005C15.75 6.25005 15.7 6.69005 15.94 6.99005C16.64 7.91005 17 8.99005 17 10.0001C17 11.0701 16.66 12.1301 15.99 12.9801C15.73 13.3001 15.77 13.7701 16.07 14.0701ZM14.5 10.0001C14.5 8.40005 12.99 7.15005 11.32 7.59005C10.52 7.80005 9.86 8.44005 9.62 9.24005C9.3 10.3001 9.68 11.2801 10.38 11.8801L7.42 20.75C7.21 21.37 7.67 22 8.32 22C8.73 22 9.09 21.74 9.22 21.35L9.67 20H14.34L14.79 21.35C14.8269 21.4712 14.8878 21.5838 14.9689 21.6811C15.0501 21.7784 15.1498 21.8584 15.2624 21.9166C15.375 21.9747 15.4981 22.0097 15.6244 22.0195C15.7507 22.0293 15.8777 22.0137 15.9979 21.9736C16.118 21.9335 16.229 21.8698 16.3242 21.7862C16.4193 21.7026 16.4968 21.6007 16.552 21.4867C16.6072 21.3727 16.639 21.2487 16.6455 21.1222C16.652 20.9957 16.6332 20.8692 16.59 20.75L13.63 11.8801C14.16 11.4201 14.5 10.7601 14.5 10.0001ZM10.33 18.0001L12 13.0001L13.67 18.0001H10.33Z" fill="#F59E0B"/>
</svg>
