<svg width="624" height="144" viewBox="0 0 624 144" fill="none" xmlns="http://www.w3.org/2000/svg">
<g clip-path="url(#clip0_1946_855)">
<path d="M0 24C0 10.7452 10.7452 0 24 0H600C613.255 0 624 10.7452 624 24V120C624 133.255 613.255 144 600 144H24C10.7452 144 0 133.255 0 120V24Z" fill="url(#paint0_linear_1946_855)"/>
<g filter="url(#filter0_f_1946_855)">
<path d="M119.981 177.353C61.794 168.137 22.0978 113.5 31.3137 55.3134C40.5295 -2.87331 95.1667 -42.5696 153.353 -33.3537C211.54 -24.1378 251.236 30.4994 242.021 88.6861C232.805 146.873 178.167 186.569 119.981 177.353ZM123.318 156.282C145.671 159.823 168.515 154.338 186.825 141.036C205.134 127.733 217.409 107.702 220.95 85.3488C224.49 62.9956 219.006 40.1516 205.703 21.842C192.401 3.53254 172.369 -8.74262 150.016 -12.283C127.663 -15.8234 104.819 -10.339 86.5094 2.96361C68.1999 16.2663 55.9247 36.2975 52.3843 58.6507C48.8439 81.0038 54.3283 103.848 67.631 122.157C80.9336 140.467 100.965 152.742 123.318 156.282ZM121.126 101.937L142.197 105.274L138.859 126.345L117.789 123.008L121.126 101.937ZM134.475 17.6544L155.546 20.9916L145.534 84.2037L124.463 80.8664L134.475 17.6544Z" fill="white" fill-opacity="0.2"/>
</g>
<g filter="url(#filter1_f_1946_855)">
<path d="M608 0L613.388 16.5836H630.825L616.719 26.8328L622.107 43.4164L608 33.1672L593.893 43.4164L599.281 26.8328L585.175 16.5836H602.612L608 0Z" fill="white" fill-opacity="0.6"/>
</g>
</g>
<defs>
<filter id="filter0_f_1946_855" x="25.9844" y="-38.6826" width="221.365" height="221.365" filterUnits="userSpaceOnUse" color-interpolation-filters="sRGB">
<feFlood flood-opacity="0" result="BackgroundImageFix"/>
<feBlend mode="normal" in="SourceGraphic" in2="BackgroundImageFix" result="shape"/>
<feGaussianBlur stdDeviation="2" result="effect1_foregroundBlur_1946_855"/>
</filter>
<filter id="filter1_f_1946_855" x="545.175" y="-40" width="125.65" height="123.417" filterUnits="userSpaceOnUse" color-interpolation-filters="sRGB">
<feFlood flood-opacity="0" result="BackgroundImageFix"/>
<feBlend mode="normal" in="SourceGraphic" in2="BackgroundImageFix" result="shape"/>
<feGaussianBlur stdDeviation="20" result="effect1_foregroundBlur_1946_855"/>
</filter>
<linearGradient id="paint0_linear_1946_855" x1="0" y1="0" x2="604.162" y2="203.033" gradientUnits="userSpaceOnUse">
<stop stop-color="#0CADEE" stop-opacity="0.6"/>
<stop offset="0.666667" stop-color="#043C84"/>
<stop offset="1" stop-color="#0CADEE"/>
</linearGradient>
<clipPath id="clip0_1946_855">
<path d="M0 24C0 10.7452 10.7452 0 24 0H600C613.255 0 624 10.7452 624 24V120C624 133.255 613.255 144 600 144H24C10.7452 144 0 133.255 0 120V24Z" fill="white"/>
</clipPath>
</defs>
</svg>
