<svg width="18" height="24" viewBox="0 0 18 24" fill="none" xmlns="http://www.w3.org/2000/svg">
<g clip-path="url(#clip0_2579_2494)">
<path d="M8.075 23.52C1.264 13.642 0 12.629 0 9C0 4.029 4.029 0 9 0C13.971 0 18 4.029 18 9C18 12.629 16.736 13.64 9.925 23.516C9.82157 23.665 9.68368 23.7867 9.52307 23.871C9.36247 23.9552 9.1839 23.9994 9.00254 23.9998C8.82119 24.0002 8.64243 23.9568 8.48146 23.8732C8.32049 23.7897 8.18208 23.6685 8.078 23.52L8.076 23.516L8.075 23.52Z" fill="#84CC16"/>
<path d="M7.29232 9.87518L7.32982 9.83768C7.44232 9.72518 7.46315 9.54185 7.36315 9.41685C7.06732 9.03768 6.91732 8.58768 6.91732 8.16685C6.91732 7.71685 7.06315 7.26685 7.35065 6.91268C7.45482 6.78768 7.43815 6.60018 7.32148 6.48768L7.29232 6.45852C7.15065 6.31685 6.91732 6.33352 6.79232 6.49185C6.41315 6.98352 6.20898 7.57518 6.20898 8.16685C6.20898 8.75852 6.41315 9.35018 6.79232 9.84185C6.91732 10.0002 7.15065 10.0169 7.29232 9.87518ZM11.7132 5.45435L11.6798 5.48768C11.5548 5.61268 11.559 5.80435 11.6673 5.93768C12.1923 6.57518 12.459 7.38768 12.459 8.16685C12.459 8.94602 12.1965 9.75435 11.6673 10.396C11.5507 10.5335 11.5715 10.7419 11.7007 10.871C11.8465 11.0169 12.0882 11.0002 12.2173 10.8419C12.8715 10.0585 13.1673 9.12935 13.1673 8.16685C13.1673 7.20018 12.8382 6.27102 12.2048 5.48768C12.0798 5.33352 11.8507 5.31685 11.7132 5.45435Z" fill="white"/>
<path d="M6.32148 5.48768L6.28815 5.45435C6.15065 5.31685 5.92148 5.33352 5.79648 5.48768C5.16315 6.27102 4.83398 7.20018 4.83398 8.16685C4.83398 9.13352 5.16315 10.0627 5.79648 10.846C5.92148 11.0002 6.15065 11.021 6.28815 10.8794L6.32148 10.846C6.44648 10.721 6.44232 10.5294 6.33398 10.396C5.80482 9.75435 5.54232 8.94602 5.54232 8.16685C5.54232 7.38768 5.80482 6.57935 6.33398 5.93768C6.44232 5.80435 6.44648 5.61268 6.32148 5.48768ZM10.6965 9.86268C10.8465 10.0127 11.0923 9.99602 11.2215 9.82518C11.5965 9.33352 11.7923 8.75018 11.7923 8.16685C11.759 7.57935 11.5798 6.98768 11.209 6.49602C11.1806 6.4579 11.1443 6.42633 11.1027 6.40343C11.061 6.38053 11.0149 6.36684 10.9675 6.36328C10.9201 6.35973 10.8725 6.36639 10.8279 6.38282C10.7833 6.39925 10.7428 6.42506 10.709 6.45852L10.6757 6.49185C10.5632 6.60435 10.5423 6.78768 10.6423 6.91268C10.934 7.29602 11.084 7.74602 11.084 8.16685C11.084 8.61268 10.9423 9.05435 10.6632 9.40852C10.5548 9.54185 10.5715 9.73768 10.6965 9.86268ZM10.0423 8.16685C10.0423 7.50018 9.41315 6.97935 8.71732 7.16268C8.38398 7.25018 8.10898 7.51685 8.00898 7.85018C7.87565 8.29185 8.03398 8.70018 8.32565 8.95018L7.09232 12.646C7.00482 12.9043 7.19648 13.1668 7.46732 13.1668C7.63815 13.1668 7.78815 13.0585 7.84232 12.896L8.02982 12.3335H9.97565L10.1632 12.896C10.1785 12.9465 10.2039 12.9934 10.2377 13.0339C10.2715 13.0745 10.3131 13.1078 10.36 13.1321C10.4069 13.1563 10.4582 13.1709 10.5108 13.1749C10.5634 13.179 10.6163 13.1725 10.6664 13.1558C10.7165 13.1391 10.7627 13.1126 10.8024 13.0777C10.842 13.0429 10.8743 13.0005 10.8973 12.953C10.9203 12.9054 10.9336 12.8538 10.9363 12.8011C10.939 12.7484 10.9311 12.6956 10.9132 12.646L9.67982 8.95018C9.90065 8.75852 10.0423 8.48352 10.0423 8.16685ZM8.30482 11.5002L9.00065 9.41685L9.69648 11.5002H8.30482Z" fill="white"/>
</g>
<defs>
<clipPath id="clip0_2579_2494">
<rect width="18" height="24" fill="white"/>
</clipPath>
</defs>
</svg>
