<svg width="18" height="18" viewBox="0 0 18 18" fill="none" xmlns="http://www.w3.org/2000/svg">
<path d="M9.00003 10.7362C9.45143 10.7368 9.88459 10.5581 10.2043 10.2394C10.524 9.92075 10.704 9.48814 10.7048 9.03674C10.7039 8.58541 10.5238 8.15289 10.2041 7.83428C9.88447 7.51566 9.45137 7.33702 9.00003 7.33762C8.54882 7.33712 8.11587 7.51576 7.79629 7.83428C7.47671 8.1528 7.29665 8.58516 7.29565 9.03637C7.29635 9.48777 7.47628 9.92042 7.7959 10.2392C8.11551 10.558 8.54863 10.7367 9.00003 10.7362Z" fill="#B0E042" stroke="#B0E042" stroke-width="2.08333" stroke-linejoin="round"/>
<path d="M6.00006 5.625C4.00018 7.48875 4.00018 10.5112 6.00006 12.375M12.0001 12.375C13.9999 10.5112 13.9999 7.48875 12.0001 5.625M3.69681 3.75C0.768057 6.66975 0.768057 11.4037 3.69681 14.3235M14.3033 14.3235C17.2321 11.4037 17.2321 6.66975 14.3033 3.75" stroke="#B0E042" stroke-width="2.08333" stroke-linecap="round" stroke-linejoin="round"/>
</svg>
