<svg width="18" height="24" viewBox="0 0 18 24" fill="none" xmlns="http://www.w3.org/2000/svg">
<g clip-path="url(#clip0_10_40)">
<path d="M8.075 23.52C1.264 13.642 0 12.629 0 9C0 4.029 4.029 0 9 0C13.971 0 18 4.029 18 9C18 12.629 16.736 13.64 9.925 23.516C9.82157 23.665 9.68368 23.7867 9.52307 23.871C9.36247 23.9552 9.1839 23.9994 9.00254 23.9998C8.82119 24.0002 8.64243 23.9568 8.48146 23.8732C8.32049 23.7897 8.18208 23.6685 8.078 23.52L8.076 23.516L8.075 23.52Z" fill="#108A00"/>
<path d="M7.29165 9.875L7.32915 9.8375C7.44165 9.725 7.46248 9.54167 7.36248 9.41667C7.06665 9.0375 6.91665 8.5875 6.91665 8.16667C6.91665 7.71667 7.06248 7.26667 7.34998 6.9125C7.45415 6.7875 7.43748 6.6 7.32081 6.4875L7.29165 6.45833C7.14998 6.31667 6.91665 6.33333 6.79165 6.49167C6.41248 6.98333 6.20831 7.575 6.20831 8.16667C6.20831 8.75833 6.41248 9.35 6.79165 9.84167C6.91665 10 7.14998 10.0167 7.29165 9.875ZM11.7125 5.45417L11.6791 5.4875C11.5541 5.6125 11.5583 5.80417 11.6666 5.9375C12.1916 6.575 12.4583 7.3875 12.4583 8.16667C12.4583 8.94583 12.1958 9.75417 11.6666 10.3958C11.55 10.5333 11.5708 10.7417 11.7 10.8708C11.8458 11.0167 12.0875 11 12.2166 10.8417C12.8708 10.0583 13.1666 9.12917 13.1666 8.16667C13.1666 7.2 12.8375 6.27083 12.2041 5.4875C12.0791 5.33333 11.85 5.31667 11.7125 5.45417Z" fill="white"/>
<path d="M6.32081 5.4875L6.28748 5.45417C6.14998 5.31667 5.92081 5.33333 5.79581 5.4875C5.16248 6.27083 4.83331 7.2 4.83331 8.16667C4.83331 9.13333 5.16248 10.0625 5.79581 10.8458C5.92081 11 6.14998 11.0208 6.28748 10.8792L6.32081 10.8458C6.44581 10.7208 6.44165 10.5292 6.33331 10.3958C5.80415 9.75417 5.54165 8.94583 5.54165 8.16667C5.54165 7.3875 5.80415 6.57917 6.33331 5.9375C6.44165 5.80417 6.44581 5.6125 6.32081 5.4875ZM10.6958 9.8625C10.8458 10.0125 11.0916 9.99583 11.2208 9.825C11.5958 9.33333 11.7916 8.75 11.7916 8.16667C11.7583 7.57917 11.5791 6.9875 11.2083 6.49583C11.1799 6.45772 11.1437 6.42614 11.102 6.40324C11.0603 6.38034 11.0143 6.36665 10.9669 6.3631C10.9195 6.35954 10.8718 6.36621 10.8272 6.38264C10.7826 6.39907 10.7421 6.42488 10.7083 6.45833L10.675 6.49167C10.5625 6.60417 10.5416 6.7875 10.6416 6.9125C10.9333 7.29583 11.0833 7.74583 11.0833 8.16667C11.0833 8.6125 10.9416 9.05417 10.6625 9.40833C10.5541 9.54167 10.5708 9.7375 10.6958 9.8625ZM10.0416 8.16667C10.0416 7.5 9.41248 6.97917 8.71665 7.1625C8.38331 7.25 8.10831 7.51667 8.00831 7.85C7.87498 8.29167 8.03331 8.7 8.32498 8.95L7.09165 12.6458C7.00415 12.9042 7.19581 13.1667 7.46665 13.1667C7.63748 13.1667 7.78748 13.0583 7.84165 12.8958L8.02915 12.3333H9.97498L10.1625 12.8958C10.1779 12.9463 10.2032 12.9932 10.237 13.0338C10.2708 13.0743 10.3124 13.1077 10.3593 13.1319C10.4062 13.1561 10.4575 13.1707 10.5101 13.1748C10.5628 13.1788 10.6157 13.1723 10.6658 13.1556C10.7158 13.139 10.7621 13.1124 10.8017 13.0776C10.8414 13.0427 10.8736 13.0003 10.8966 12.9528C10.9196 12.9053 10.9329 12.8536 10.9356 12.8009C10.9383 12.7482 10.9305 12.6955 10.9125 12.6458L9.67915 8.95C9.89998 8.75833 10.0416 8.48333 10.0416 8.16667ZM8.30415 11.5L8.99998 9.41667L9.69581 11.5H8.30415Z" fill="white"/>
</g>
<defs>
<clipPath id="clip0_10_40">
<rect width="18" height="24" fill="white"/>
</clipPath>
</defs>
</svg>
