<svg width="22" height="21" viewBox="0 0 22 21" fill="none" xmlns="http://www.w3.org/2000/svg">
<path d="M21.8541 18.0833L17.5833 13.8125C18 12.7708 17.7916 11.4166 16.8541 10.5833C15.9166 9.64579 14.5625 9.43746 13.4166 9.95829L15.3958 11.9375L13.9375 13.3958L11.8541 11.3125C11.3333 12.4583 11.5416 13.8125 12.4791 14.8541C13.4166 15.7916 14.6666 16 15.7083 15.5833L19.9791 19.8541C20.1875 20.0625 20.5 20.0625 20.6041 19.8541L21.6458 18.8125C21.9583 18.5 21.9583 18.1875 21.8541 18.0833ZM11.5416 16.8333H0.083313V14.75C0.083313 12.4583 3.83331 10.5833 8.41665 10.5833C8.93748 10.5833 9.45831 10.5833 9.87498 10.6875C9.56248 11.3125 9.45831 11.9375 9.45831 12.6666C9.45831 14.3333 10.2916 15.8958 11.5416 16.8333ZM8.41665 0.166626C6.12498 0.166626 4.24998 2.04163 4.24998 4.33329C4.24998 6.62496 6.12498 8.49996 8.41665 8.49996C10.7083 8.49996 12.5833 6.62496 12.5833 4.33329C12.5833 2.04163 10.7083 0.166626 8.41665 0.166626Z" fill="#FFFDFD" fill-opacity="0.3"/>
</svg>
