<svg width="97" height="97" xmlns="http://www.w3.org/2000/svg" xmlns:xlink="http://www.w3.org/1999/xlink" xml:space="preserve" overflow="hidden"><g transform="translate(-197 -53)"><g><g><g><g><path d="M243 121 249 121 249 129 243 129Z" fill="#3B7D23" fill-rule="nonzero" fill-opacity="1"/><path d="M243 133 249 133 249 139 243 139Z" fill="#3B7D23" fill-rule="nonzero" fill-opacity="1"/><path d="M253 133 282 133 282 139 253 139Z" fill="#3B7D23" fill-rule="nonzero" fill-opacity="1"/><path d="M210 133 239 133 239 139 210 139Z" fill="#3B7D23" fill-rule="nonzero" fill-opacity="1"/><path d="M274.42 105 217.58 105C215.603 105 214 106.603 214 108.58L214 117.42C214 119.397 215.603 121 217.58 121L274.42 121C276.397 121 278 119.397 278 117.42L278 108.58C278 106.603 276.397 105 274.42 105ZM224 115C222.895 115 222 114.105 222 113 222 111.895 222.895 111 224 111 225.105 111 226 111.895 226 113 226 114.105 225.105 115 224 115ZM234 115C232.895 115 232 114.105 232 113 232 111.895 232.895 111 234 111 235.105 111 236 111.895 236 113 236 114.105 235.105 115 234 115ZM244 115C242.895 115 242 114.105 242 113 242 111.895 242.895 111 244 111 245.105 111 246 111.895 246 113 246 114.105 245.105 115 244 115Z" fill="#3B7D23" fill-rule="nonzero" fill-opacity="1"/><path d="M274.42 85 217.58 85C215.603 85 214 86.6028 214 88.58L214 97.42C214 99.3972 215.603 101 217.58 101L274.42 101C276.397 101 278 99.3972 278 97.42L278 88.58C278 86.6028 276.397 85 274.42 85ZM224 95C222.895 95 222 94.1046 222 93 222 91.8954 222.895 91 224 91 225.105 91 226 91.8954 226 93 226 94.1046 225.105 95 224 95ZM234 95C232.895 95 232 94.1046 232 93 232 91.8954 232.895 91 234 91 235.105 91 236 91.8954 236 93 236 94.1046 235.105 95 234 95ZM244 95C242.895 95 242 94.1046 242 93 242 91.8954 242.895 91 244 91 245.105 91 246 91.8954 246 93 246 94.1046 245.105 95 244 95Z" fill="#3B7D23" fill-rule="nonzero" fill-opacity="1"/><path d="M274.42 65 217.58 65C215.603 65 214 66.6028 214 68.58L214 77.42C214 79.3972 215.603 81 217.58 81L274.42 81C276.397 81 278 79.3972 278 77.42L278 68.58C278 66.6028 276.397 65 274.42 65ZM224 75C222.895 75 222 74.1046 222 73 222 71.8954 222.895 71 224 71 225.105 71 226 71.8954 226 73 226 74.1046 225.105 75 224 75ZM234 75C232.895 75 232 74.1046 232 73 232 71.8954 232.895 71 234 71 235.105 71 236 71.8954 236 73 236 74.1046 235.105 75 234 75ZM244 75C242.895 75 242 74.1046 242 73 242 71.8954 242.895 71 244 71 245.105 71 246 71.8954 246 73 246 74.1046 245.105 75 244 75Z" fill="#3B7D23" fill-rule="nonzero" fill-opacity="1"/></g></g></g></g></g></svg>