<svg width="58" height="60" viewBox="0 0 58 60" fill="none" xmlns="http://www.w3.org/2000/svg">
<path d="M46.9603 59.9999C46.5158 59.9999 46.0713 59.9999 45.1696 59.6362C36.2694 57.1773 27.8192 55.1103 19.3857 52.9776C13.1769 51.4075 6.98988 49.7515 0.862305 47.659C0.991944 33.8026 1.05245 20.421 1.54253 7.01817C16.9846 9.37457 31.9971 11.7521 47.0953 14.2682C47.3024 14.5914 47.468 14.7187 47.7489 15.231C47.8051 17.464 47.7902 19.2543 47.3987 21.1365C46.6707 22.0801 46.0196 22.9296 46.0134 23.7837C45.942 33.6634 45.9416 43.544 46.0139 53.4236C46.0203 54.3013 46.6679 55.1742 47.0017 56.4442C46.9772 57.8927 46.9688 58.9463 46.9603 59.9999ZM33.4609 46.6894C33.62 46.1734 33.7791 45.6573 34.6234 45.2403C36.3259 46.9666 38.0285 48.693 39.7311 50.4193C40.2113 49.9792 40.6915 49.5391 41.1717 49.099C40.0034 46.9998 38.8351 44.9007 37.7198 42.8967C39.904 41.9072 41.5125 41.1785 43.1209 40.4498C43.0663 39.8186 43.0117 39.1874 42.957 38.5562C39.3872 38.1704 35.3186 36.5651 32.3957 37.7608C29.7624 38.838 26.8411 42.08 27.8693 46.505C28.6209 49.7398 29.9363 50.7022 32.9485 48.5902C32.9549 48.3996 32.9613 48.209 33.0006 47.5141C33.004 47.3457 33.0074 47.1773 33.4609 46.6894ZM31.8741 17.4252C30.8231 16.8636 29.772 16.302 28.5175 15.6316C27.6374 21.5343 29.7332 28.1066 33.365 29.5133C36.135 30.5862 39.3801 30.4324 42.4139 30.8244C42.4964 30.247 42.5788 29.6696 42.6613 29.0922C40.7337 28.2579 38.8062 27.4237 37.0631 26.6693C37.1981 23.3594 44.7461 22.1772 38.5832 18.3691C36.9862 19.2349 35.3277 20.134 33.6038 21.0684C33.1052 19.7891 32.7531 18.8858 31.8741 17.4252ZM20.921 15.6443C20.1122 15.1093 19.3034 14.5742 18.4946 14.0391C17.7009 15.5165 16.9073 16.994 16.0941 18.5079C14.0761 16.6009 12.0662 14.7014 9.49761 12.2741C6.62889 16.9785 12.1006 17.851 12.3952 20.8204C10.658 21.4112 8.79425 22.045 5.75033 23.0801C10.3145 25.2144 13.7881 26.9597 17.727 25.5543C22.2559 23.9384 20.9076 19.8767 20.921 15.6443ZM9.99118 44.51C12.155 43.7653 14.3188 43.0206 16.2372 42.3603C17.2147 43.8699 18.2157 45.4158 19.441 47.3081C23.3309 41.4813 20.0428 37.5467 16.654 34.6199C14.3772 32.6534 10.5866 32.4398 7.47323 31.4419C7.17946 32.2131 6.8857 32.9843 6.59193 33.7555C8.58635 34.8283 10.5808 35.9011 13.0709 37.2406C11.901 38.1987 10.3762 38.9638 9.64775 40.1986C9.07301 41.1728 9.47832 42.7253 9.99118 44.51ZM28.2436 35.1339C28.2134 33.2802 28.7965 31.064 27.9767 29.6768C27.1906 28.3465 25.0108 27.4313 23.3238 27.1977C22.3383 27.0613 20.1397 28.697 20.1963 29.3973C20.3387 31.1584 21.0197 33.377 22.296 34.4056C23.5966 35.4537 25.8654 35.3002 28.2436 35.1339Z" fill="#64748B"/>
<path d="M47.7754 21.0446C47.7903 19.2543 47.8052 17.464 48.203 15.1587C48.8828 14.5748 49.1797 14.5061 49.2983 14.9072C49.4066 29.5772 49.6931 43.7774 49.8825 58.2501C49.5106 59.0151 49.2359 59.5075 48.9612 60C48.5166 60 48.072 60 47.2939 60C46.9688 58.9464 46.9773 57.8927 47.2378 56.2173C47.5851 44.0785 47.6802 32.5616 47.7754 21.0446Z" fill="#94A3B8"/>
<path d="M0.862775 47.6591C0.793647 48.1338 0.356974 48.1314 0.14952 48.0633C-0.0579338 33.6353 -0.0579337 19.2753 0.202609 4.45043C0.636036 4.00244 0.80892 4.0194 0.986764 4.41171C1.03229 5.53784 1.07286 6.28863 1.11344 7.03942C1.05292 20.4211 0.992415 33.8027 0.862775 47.6591Z" fill="#94A3B8"/>
<path d="M6.71532 0.184781C7.98433 -0.0461988 9.04193 -0.0217962 10.4935 0.0504565C18.1989 1.39138 25.5294 2.58568 32.8162 4.00498C40.2832 5.4594 47.7074 7.13406 55.4855 8.89721C55.8208 9.08211 55.9237 9.52449 55.7475 10.0377C54.0123 11.3836 52.4533 12.2163 50.6445 13.1665C50.1348 13.5511 49.8749 13.8181 49.6121 14.157C49.6093 14.2288 49.4763 14.4373 49.4763 14.4373C49.1794 14.506 48.8826 14.5748 48.1316 14.7159C47.4678 14.7187 47.3022 14.5914 47.0433 13.8665C46.4348 12.9115 46.0145 12.2199 45.4854 12.1231C35.8819 10.367 26.2555 8.73598 16.6557 6.96055C11.6981 6.04368 6.78295 4.89736 1.84863 3.85471C3.40039 2.71652 4.95215 1.57834 6.71532 0.184781Z" fill="#043C84"/>
<path d="M32.9015 49.1624C29.9365 50.7023 28.6211 49.7399 27.8695 46.505C26.8412 42.08 29.7625 38.8381 32.3959 37.7608C35.3187 36.5652 39.3874 38.1705 42.9572 38.5562C43.0118 39.1875 43.0665 39.8187 43.1211 40.4499C41.5126 41.1786 39.9042 41.9073 37.72 42.8968C38.8353 44.9008 40.0036 46.9999 41.1719 49.0991C40.6917 49.5392 40.2115 49.9793 39.7313 50.4194C38.0287 48.6931 36.3261 46.9667 34.0612 45.0995C33.499 44.9587 33.0443 44.8185 32.8484 44.547C32.4701 45.507 32.2876 46.7384 32.0719 48.2431C32.3263 48.7317 32.6139 48.9471 32.9015 49.1624Z" fill="white"/>
<path d="M32.1376 17.7039C32.7531 18.8858 33.1052 19.7891 33.6039 21.0685C35.3277 20.134 36.9862 19.2349 38.5832 18.3692C44.7461 22.1772 37.1981 23.3595 37.0631 26.6693C38.8062 27.4237 40.7338 28.2579 42.6613 29.0922C42.5788 29.6696 42.4964 30.247 42.4139 30.8244C39.3801 30.4324 36.135 30.5862 33.365 29.5133C29.7332 28.1066 27.6374 21.5343 28.5175 15.6316C29.7721 16.302 30.8231 16.8636 32.1376 17.7039Z" fill="white"/>
<path d="M20.9352 16.0572C20.9082 19.8768 22.2565 23.9385 17.7277 25.5544C13.7888 26.9597 10.3151 25.2145 5.75098 23.0802C8.7949 22.0451 10.6586 21.4112 12.3958 20.8205C12.1012 17.8511 6.62953 16.9786 9.49826 12.2742C12.0668 14.7015 14.0767 16.601 16.0947 18.508C16.9079 16.9941 17.7016 15.5166 18.4952 14.0392C19.304 14.5743 20.1128 15.1093 20.9352 16.0572Z" fill="white"/>
<path d="M9.71964 44.2655C9.47819 42.7253 9.07288 41.1729 9.64762 40.1986C10.3761 38.9638 11.9009 38.1988 13.0708 37.2406C10.5806 35.9012 8.58622 34.8284 6.5918 33.7556C6.88556 32.9844 7.17933 32.2132 7.4731 31.442C10.5864 32.4398 14.3771 32.6535 16.6539 34.6199C20.0427 37.5467 23.3307 41.4814 19.4409 47.3081C18.2156 45.4158 17.2145 43.8699 16.237 42.3603C14.3187 43.0206 12.1549 43.7653 9.71964 44.2655Z" fill="white"/>
<path d="M1.62255 3.85481C6.78325 4.89745 11.6984 6.04377 16.656 6.96065C26.2557 8.73607 35.8822 10.3671 45.4857 12.1232C46.0148 12.2199 46.4351 12.9116 46.9579 13.7281C31.9971 11.7522 16.9846 9.37466 1.5426 7.01827C1.07247 6.28865 1.0319 5.53786 0.986372 4.41173C0.981412 4.03639 1.39617 3.85483 1.62255 3.85481Z" fill="#0CADEE"/>
<path d="M47.399 21.1366C47.6804 32.5616 47.5852 44.0785 47.254 55.8224C46.6681 55.1742 46.0205 54.3013 46.0141 53.4237C45.9418 43.544 45.9422 33.6634 46.0136 23.7837C46.0198 22.9296 46.6709 22.0802 47.399 21.1366Z" fill="#64748B"/>
<path d="M27.9771 35.4034C25.8655 35.3002 23.5967 35.4537 22.2961 34.4056C21.0198 33.377 20.3387 31.1584 20.1964 29.3973C20.1398 28.6971 22.3384 27.0613 23.3239 27.1977C25.0109 27.4313 27.1907 28.3466 27.9768 29.6769C28.7966 31.064 28.2135 33.2802 27.9771 35.4034Z" fill="white"/>
<path d="M32.1055 47.9698C32.288 46.7384 32.4704 45.507 32.8228 44.9117C32.9989 46.0349 33.0051 46.5219 33.0114 47.0089C33.008 47.1773 33.0046 47.3457 32.7687 47.7561C32.5362 47.9981 32.1055 47.9698 32.1055 47.9698Z" fill="#64748B"/>
<path d="M33.2356 46.8484C33.0044 46.5212 32.9981 46.0344 33.0179 45.183C33.0439 44.8185 33.4984 44.9586 33.718 45.0499C33.7786 45.657 33.6195 46.1729 33.2356 46.8484Z" fill="#64748B"/>
<path d="M32.0723 48.243C32.1055 47.9698 32.536 47.998 32.752 48.0082C32.9615 48.2089 32.9551 48.3995 32.9252 48.876C32.6141 48.9466 32.3266 48.7314 32.0723 48.243Z" fill="#64748B"/>
<path d="M49.2988 14.9072C49.4771 14.4373 49.61 14.2288 49.9069 14.0846C50.4342 13.6432 50.6646 13.3461 50.8951 13.0489C52.4541 12.2163 54.0131 11.3836 55.7709 10.2637C56.5872 11.5245 57.7225 13.0667 57.7398 14.6214C57.8707 26.3877 57.7823 38.1565 57.7372 50.382C55.3361 53.1169 52.9603 55.3944 50.2823 57.8247C49.6936 43.7774 49.4071 29.5772 49.2988 14.9072Z" fill="#043C84"/>
<path d="M50.6445 13.1665C50.6638 13.346 50.4335 13.643 49.9092 14.0124C49.8752 13.8179 50.135 13.551 50.6445 13.1665Z" fill="#6C88A6"/>
</svg>
